<svg xmlns="http://www.w3.org/2000/svg" width="1400" height="900"><rect width="1400" height="900" fill="#071b2d"/><text x="60" y="70" fill="#fff" font-family="Arial" font-size="34" font-weight="700">Concept 09 · Monitoring Delta</text><rect x="60" y="130" width="1280" height="700" rx="20" fill="#f7f9fc"/><text x="100" y="190" fill="#102a43" font-family="Arial" font-size="30" font-weight="700">Was hat sich seit dem letzten Report verändert?</text><g fill="#fff" stroke="#d7e1eb"><rect x="100" y="235" width="260" height="150" rx="14"/><rect x="380" y="235" width="260" height="150" rx="14"/><rect x="660" y="235" width="260" height="150" rx="14"/><rect x="940" y="235" width="300" height="150" rx="14"/></g><text x="130" y="280" fill="#102a43" font-family="Arial" font-size="19">Neue Findings</text><text x="130" y="340" fill="#e53935" font-family="Arial" font-size="38" font-weight="700">+8</text><text x="410" y="280" fill="#102a43" font-family="Arial" font-size="19">Gelöst</text><text x="410" y="340" fill="#1e9d62" font-family="Arial" font-size="38" font-weight="700">-12</text><text x="690" y="280" fill="#102a43" font-family="Arial" font-size="19">Verschlechtert</text><text x="690" y="340" fill="#ef6c00" font-family="Arial" font-size="38" font-weight="700">+3</text><text x="970" y="280" fill="#102a43" font-family="Arial" font-size="19">Realisierte Einsparung</text><text x="970" y="340" fill="#1e9d62" font-family="Arial" font-size="38" font-weight="700">€ 350k</text><rect x="100" y="430" width="760" height="300" rx="14" fill="#fff" stroke="#d7e1eb"/><rect x="890" y="430" width="350" height="300" rx="14" fill="#fff" stroke="#d7e1eb"/><text x="130" y="475" fill="#102a43" font-family="Arial" font-size="22" font-weight="700">Trendvergleich</text><text x="920" y="475" fill="#102a43" font-family="Arial" font-size="22" font-weight="700">Regressionen & Re-Validierung</text></svg>