<svg xmlns="http://www.w3.org/2000/svg" width="1120" height="620" viewBox="0 0 1120 620" role="img" aria-labelledby="title desc">
  <title id="title">Executive report preview</title>
  <desc id="desc">BCSentinel executive report with score, estimated loss, potential saving and recommendations.</desc>
  <defs>
    <linearGradient id="cover" x1="0" x2="1" y1="0" y2="1">
      <stop offset="0" stop-color="#061a3d"/>
      <stop offset="1" stop-color="#0b63f6"/>
    </linearGradient>
  </defs>
  <rect width="1120" height="620" rx="24" fill="#f6f9fe"/>
  <rect x="36" y="36" width="230" height="548" rx="18" fill="url(#cover)"/>
  <text x="70" y="94" fill="#fff" font-family="Inter, Arial" font-size="18" font-weight="800">BCSentinel</text>
  <text x="70" y="172" fill="#fff" font-family="Inter, Arial" font-size="34" font-weight="800">Executive</text>
  <text x="70" y="214" fill="#fff" font-family="Inter, Arial" font-size="34" font-weight="800">Report</text>
  <text x="70" y="286" fill="#dce9ff" font-family="Inter, Arial" font-size="16">Contoso Ltd.</text>
  <text x="70" y="314" fill="#dce9ff" font-family="Inter, Arial" font-size="16">Mai 2024</text>
  <text x="70" y="548" fill="#dce9ff" font-family="Inter, Arial" font-size="13">Data Quality. Measurable Impact.</text>
  <rect x="302" y="36" width="782" height="548" rx="18" fill="#fff" stroke="#d9e5f7"/>
  <text x="344" y="92" fill="#071a3c" font-family="Inter, Arial" font-size="24" font-weight="800">Executive Summary</text>
  <g font-family="Inter, Arial">
    <rect x="344" y="126" width="164" height="112" rx="14" fill="#fff" stroke="#d9e5f7"/>
    <path d="M388 202a36 36 0 1 1 52-32" fill="none" stroke="#0b8f78" stroke-width="12" stroke-linecap="round"/>
    <text x="411" y="190" fill="#071a3c" font-size="24" font-weight="800">82</text>
    <text x="438" y="190" fill="#536783" font-size="11">/100</text>
    <rect x="536" y="126" width="218" height="112" rx="14" fill="#fff" stroke="#d9e5f7"/>
    <text x="566" y="166" fill="#536783" font-size="13" font-weight="700">Estimated Loss</text>
    <text x="566" y="204" fill="#071a3c" font-size="28" font-weight="800">EUR 1.246.000</text>
    <rect x="782" y="126" width="218" height="112" rx="14" fill="#fff" stroke="#d9e5f7"/>
    <text x="812" y="166" fill="#536783" font-size="13" font-weight="700">Potential Saving</text>
    <text x="812" y="204" fill="#071a3c" font-size="28" font-weight="800">EUR 892.000</text>
  </g>
  <g>
    <text x="344" y="292" fill="#071a3c" font-family="Inter, Arial" font-size="18" font-weight="800">Top 5 Risiken nach finanzieller Auswirkung</text>
    <rect x="344" y="322" width="392" height="16" rx="8" fill="#0b63f6"/>
    <rect x="344" y="360" width="310" height="16" rx="8" fill="#247cff"/>
    <rect x="344" y="398" width="248" height="16" rx="8" fill="#4fa2ff"/>
    <rect x="344" y="436" width="212" height="16" rx="8" fill="#7bbdff"/>
    <rect x="344" y="474" width="170" height="16" rx="8" fill="#a9d6ff"/>
    <text x="762" y="336" fill="#071a3c" font-family="Inter, Arial" font-size="15" font-weight="800">Empfohlene Massnahmen</text>
    <g fill="#0b8f78" font-family="Inter, Arial" font-size="15">
      <text x="762" y="374">+ Duplikate zusammenfuehren</text>
      <text x="762" y="414">+ Bestandswerte validieren</text>
      <text x="762" y="454">+ Stammdaten ergaenzen</text>
      <text x="762" y="494">+ Steuerdaten korrigieren</text>
    </g>
  </g>
</svg>
