<svg xmlns="http://www.w3.org/2000/svg" width="1800" height="900" viewBox="0 0 1800 900"><rect width="100%" height="100%" fill="#061a31"/><style>text{font-family:Inter,Arial,sans-serif}</style><text x="35" y="58" fill="#fff" font-size="30" font-weight="700">◈ BCSentinel · Executive Report</text><text x="1635" y="58" fill="#55e3a1" font-size="22" font-weight="700">9.9/10</text><g transform="translate(30,100)"><rect width="550" height="760" rx="18" fill="#f7fbff"/><rect width="550" height="58" rx="18" fill="#1e7ae6"/><text x="24" y="38" fill="#fff" font-size="24" font-weight="700">Free</text><text x="28" y="115" fill="#0b1740" font-size="25" font-weight="700">Report Vorschau</text><rect x="28" y="155" width="494" height="280" rx="12" fill="#fff" stroke="#dbe6f0"/><text x="50" y="200" fill="#0b1740" font-size="18" font-weight="700">Executive Report Preview</text><text x="50" y="240" fill="#66778d">Deckblatt · Score · ausgewählte Erkenntnisse</text><text x="247" y="335" text-anchor="middle" font-size="40">🔒</text><text x="247" y="385" text-anchor="middle" fill="#0b1740" font-weight="700">Vollständiger Report im Assessment</text></g><g transform="translate(610,100)"><rect width="550" height="760" rx="18" fill="#f7fbff"/><rect width="550" height="58" rx="18" fill="#ff7a1a"/><text x="24" y="38" fill="#fff" font-size="24" font-weight="700">Assessment</text><text x="28" y="115" fill="#0b1740" font-size="25" font-weight="700">Executive Report Viewer</text><rect x="28" y="155" width="494" height="420" rx="12" fill="#fff" stroke="#dbe6f0"/><text x="50" y="195" fill="#0b1740" font-size="18" font-weight="700">Management Summary</text><text x="50" y="235" fill="#66778d">Data Health Score · Estimated Loss · Potential Saving</text><text x="50" y="280" fill="#66778d">Top Findings · priorisierte Maßnahmen · Business Impact</text><rect x="50" y="330" width="190" height="44" rx="9" fill="#ff7a1a"/><text x="145" y="359" text-anchor="middle" fill="#fff" font-weight="700">PDF herunterladen</text><rect x="270" y="330" width="190" height="44" rx="9" fill="#eef4fb"/><text x="365" y="359" text-anchor="middle" fill="#0b1740" font-weight="700">Report ansehen</text></g><g transform="translate(1190,100)"><rect width="550" height="760" rx="18" fill="#f7fbff"/><rect width="550" height="58" rx="18" fill="#16a66a"/><text x="24" y="38" fill="#fff" font-size="24" font-weight="700">Monitoring</text><text x="28" y="115" fill="#0b1740" font-size="25" font-weight="700">Report Historie &amp; Periodenvergleich</text><rect x="28" y="155" width="494" height="300" rx="12" fill="#fff" stroke="#dbe6f0"/><polyline points="55,395 125,380 195,350 265,325 335,290 405,260 470,225" fill="none" stroke="#16a66a" stroke-width="6"/><text x="50" y="200" fill="#0b1740" font-size="18" font-weight="700">Quarterly / Monthly Report Trend</text><rect x="28" y="485" width="494" height="120" rx="12" fill="#fff" stroke="#dbe6f0"/><text x="50" y="525" fill="#0b1740" font-size="18" font-weight="700">Neue Risiken seit letztem Report</text><text x="50" y="565" fill="#66778d">Historie · Delta · realisierte Wirkung · geplante Zustellung</text></g></svg>