<svg xmlns="http://www.w3.org/2000/svg" width="1400" height="900"><rect width="1400" height="900" fill="#071b2d"/><text x="60" y="70" fill="#fff" font-family="Arial" font-size="36" font-weight="700">BCSentinel Executive Summary — Free</text><text x="60" y="108" fill="#9eb6cc" font-family="Arial" font-size="20">Max. 2 A4-Seiten · aggregierter Nutzen · keine Finding-Details</text><rect x="100" y="145" width="500" height="700" rx="16" fill="#fff"/><rect x="800" y="145" width="500" height="700" rx="16" fill="#fff"/><text x="140" y="200" fill="#102a43" font-family="Arial" font-size="28" font-weight="700">Executive Summary</text><text x="840" y="200" fill="#102a43" font-family="Arial" font-size="28" font-weight="700">Nächste Schritte</text><rect x="140" y="235" width="420" height="110" rx="12" fill="#eef5ff"/><text x="165" y="275" fill="#102a43" font-family="Arial" font-size="20">Gesamtbewertung</text><text x="165" y="325" fill="#2f80ed" font-family="Arial" font-size="42" font-weight="700">68 / 100</text><rect x="140" y="375" width="420" height="170" rx="12" fill="#fff4ea"/><text x="165" y="415" fill="#102a43" font-family="Arial" font-size="20" font-weight="700">Risikobereiche</text><text x="165" y="455" fill="#52677d" font-family="Arial" font-size="17">Debitoren · Artikel & Preise · Buchungen</text><text x="165" y="490" fill="#52677d" font-family="Arial" font-size="17">Stammdaten · Berechtigungen</text><rect x="140" y="575" width="420" height="210" rx="12" fill="#f7f9fc"/><text x="165" y="615" fill="#102a43" font-family="Arial" font-size="20" font-weight="700">Geschätztes Potential</text><text x="165" y="675" fill="#ef6c00" font-family="Arial" font-size="40" font-weight="700">€ 980.000 p.a.</text><text x="165" y="720" fill="#52677d" font-family="Arial" font-size="16">Keine konkreten Findings oder Ursachen im Free Report.</text><rect x="840" y="235" width="420" height="160" rx="12" fill="#f7f9fc"/><rect x="840" y="425" width="420" height="160" rx="12" fill="#f7f9fc"/><rect x="840" y="615" width="420" height="120" rx="12" fill="#fff4ea"/><text x="865" y="275" fill="#102a43" font-family="Arial" font-size="20" font-weight="700">1. Assessment starten</text><text x="865" y="465" fill="#102a43" font-family="Arial" font-size="20" font-weight="700">2. Maßnahmen priorisieren</text><text x="865" y="655" fill="#102a43" font-family="Arial" font-size="20" font-weight="700">Upgrade für Detailanalyse</text></svg>