<svg xmlns="http://www.w3.org/2000/svg" width="1800" height="900" viewBox="0 0 1800 900"><rect width="100%" height="100%" fill="#061a31"/><style>text{font-family:Inter,Arial,sans-serif}</style><text x="35" y="58" fill="#fff" font-size="30" font-weight="700">◈ BCSentinel · Finanzieller Impact</text><text x="1635" y="58" fill="#55e3a1" font-size="22" font-weight="700">9.9/10</text><g transform="translate(30,100)"><rect width="550" height="760" rx="18" fill="#f7fbff"/><rect width="550" height="58" rx="18" fill="#1e7ae6"/><text x="24" y="38" fill="#fff" font-size="24" font-weight="700">Free</text><text x="28" y="112" fill="#0b1740" font-size="25" font-weight="700">Impact Preview</text><text x="28" y="160" fill="#66778d">Estimated Loss als Gesamtwert · Top Impact-Bereiche</text><rect x="28" y="205" width="494" height="135" rx="12" fill="#fff" stroke="#dbe6f0"/><text x="48" y="250" fill="#0b1740" font-size="18" font-weight="700">Geschätzter jährlicher Verlust</text><text x="48" y="300" fill="#d84032" font-size="38" font-weight="700">€ 1.240.000</text><rect x="28" y="380" width="494" height="190" rx="12" fill="#edf3f8"/><text x="247" y="455" text-anchor="middle" font-size="38">🔒</text><text x="247" y="505" text-anchor="middle" fill="#0b1740" font-size="18" font-weight="700">Loss Driver &amp; ROI im Assessment</text></g><g transform="translate(610,100)"><rect width="550" height="760" rx="18" fill="#f7fbff"/><rect width="550" height="58" rx="18" fill="#ff7a1a"/><text x="24" y="38" fill="#fff" font-size="24" font-weight="700">Assessment</text><text x="28" y="112" fill="#0b1740" font-size="25" font-weight="700">Impact Analyse</text><text x="28" y="155" fill="#66778d">Loss Driver · Potential Saving · ROI · Szenarien</text><rect x="28" y="195" width="494" height="240" rx="12" fill="#fff" stroke="#dbe6f0"/><text x="48" y="235" fill="#0b1740" font-size="18" font-weight="700">Impact nach Bereich</text><rect x="48" y="270" width="360" height="18" rx="5" fill="#ea4335"/><rect x="48" y="305" width="240" height="18" rx="5" fill="#ff7a1a"/><rect x="48" y="340" width="165" height="18" rx="5" fill="#1570ef"/><text x="430" y="285" fill="#0b1740">€420k</text><text x="310" y="320" fill="#0b1740">€280k</text><text x="235" y="355" fill="#0b1740">€195k</text><rect x="28" y="470" width="494" height="170" rx="12" fill="#fff" stroke="#dbe6f0"/><text x="48" y="510" fill="#0b1740" font-size="18" font-weight="700">Quick Wins &amp; Break-even</text><text x="48" y="555" fill="#66778d">Maßnahmenwirkung und Einsparpotential priorisieren</text></g><g transform="translate(1190,100)"><rect width="550" height="760" rx="18" fill="#f7fbff"/><rect width="550" height="58" rx="18" fill="#16a66a"/><text x="24" y="38" fill="#fff" font-size="24" font-weight="700">Monitoring</text><text x="28" y="112" fill="#0b1740" font-size="25" font-weight="700">Outcome &amp; Trend</text><text x="28" y="155" fill="#66778d">Realisierte Einsparung · Forecast · Wirkung über Zeit</text><rect x="28" y="195" width="494" height="300" rx="12" fill="#fff" stroke="#dbe6f0"/><polyline points="55,430 110,410 165,395 220,360 275,345 330,300 385,280 455,235" fill="none" stroke="#16a66a" stroke-width="6"/><text x="48" y="235" fill="#0b1740" font-size="18" font-weight="700">Realisierte Einsparung</text><text x="48" y="285" fill="#16a66a" font-size="36" font-weight="700">€ 350.000</text><rect x="28" y="530" width="494" height="110" rx="12" fill="#fff" stroke="#dbe6f0"/><text x="48" y="570" fill="#0b1740" font-size="18" font-weight="700">Forecast &amp; Maßnahmenwirkung</text></g></svg>